<svg xmlns="http://www.w3.org/2000/svg" width="96" height="12" viewBox="0 0 96 12">
    <g fill="none" fill-rule="evenodd">
        <g fill="#FFF" fill-rule="nonzero">
            <path d="M151.49 21l-1.646 3.547c-.238.514-.456.925-.801 1.44h.134c.675-.652 1.034-.909 1.53-1.286L155.49 21h6.988l-8.148 5.603 3.432 5.825h-7.468l-1.551-3.666c-.162-.343-.264-.754-.345-1.097h-.134c-.076.394-.193.703-.367 1.08l-1.71 3.683H140L145.302 21h6.188zm24.05 0l-1.434 3.136h-5.466l-.486 1.062h4.968l-1.37 2.998h-4.969l-.501 1.097h5.625l-1.434 3.135h-11.987L163.71 21h11.83zm9.834 0l-.09 4.678c-.01.6-.165 1.165-.21 1.319h.16c.256-.497.52-.84.955-1.32L190.427 21h6.569l-2.388 11.428h-6.196l1.572-5.123c.129-.394.195-.65.416-1.13h-.106c-.214.29-.58.736-.79.96l-5.081 5.293h-3.776l-.053-5.003c.004-.411.038-.77.233-1.25h-.186c-.103.222-.31.668-.439.89l-3.358 5.363h-6.25L178.753 21h6.621zm27.747 0l-1.717 3.718-3.566-.103-3.61 7.813h-6.322l3.61-7.813-3.66.103L199.574 21h13.547zm11.143 0l1.039 11.429h-6.806l.073-1.423h-4.873l-1.131 1.423h-6.78L217.168 21h7.096zm9.247 0c1.848 0 3.05 2.048 2.223 3.789l-3.63 7.64h-6.611L230.923 21h2.588zm-14.37 3.82h-.238c-.247.48-.535.875-.883 1.286l-1.884 2.193h2.569l.189-2.193c.046-.446.138-.874.248-1.285l-.001-.001z" transform="translate(-140 -21)"/>
        </g>
    </g>
</svg>
